<?xml version="1.0" encoding="utf-8"?>
<!-- Generator: Adobe Illustrator 24.0.2, SVG Export Plug-In . SVG Version: 6.00 Build 0)  -->
<svg version="1.1" baseProfile="basic" xmlns="http://www.w3.org/2000/svg" xmlns:xlink="http://www.w3.org/1999/xlink" x="0px"
	 y="0px" viewBox="0 0 720 480" xml:space="preserve">
<style type="text/css">
	.st0{fill-rule:evenodd;clip-rule:evenodd;fill:#506588;}
	.st1{fill-rule:evenodd;clip-rule:evenodd;fill:#0B4B9E;}
	.st2{fill-rule:evenodd;clip-rule:evenodd;fill:#0F4996;}
	.st3{fill-rule:evenodd;clip-rule:evenodd;fill:#074380;}
	.st4{fill-rule:evenodd;clip-rule:evenodd;fill:#043566;}
	.st5{fill-rule:evenodd;clip-rule:evenodd;fill:#1960BC;}
	.st6{fill-rule:evenodd;clip-rule:evenodd;fill:#2390EB;}
	.st7{fill-rule:evenodd;clip-rule:evenodd;fill:#00AFEF;}
	.st8{fill-rule:evenodd;clip-rule:evenodd;fill:#052B52;}
	.st9{fill-rule:evenodd;clip-rule:evenodd;fill:#03264A;}
	.st10{fill-rule:evenodd;clip-rule:evenodd;fill:#E85801;}
	.st11{fill-rule:evenodd;clip-rule:evenodd;fill:#F17E25;}
	.st12{fill-rule:evenodd;clip-rule:evenodd;fill:#F2892B;}
	.st13{fill-rule:evenodd;clip-rule:evenodd;fill:#FFAF04;}
	.st14{fill-rule:evenodd;clip-rule:evenodd;fill:#DB4E03;}
	.st15{fill-rule:evenodd;clip-rule:evenodd;fill:#DE422C;}
	.st16{fill-rule:evenodd;clip-rule:evenodd;fill:#C42521;}
	.st17{fill-rule:evenodd;clip-rule:evenodd;fill:#FDBF08;}
	.st18{fill-rule:evenodd;clip-rule:evenodd;fill:#FFE93B;}
</style>
<g id="Layer_69">
	<g id="Layer_48">
		<g id="Layer_1">
		</g>
	</g>
</g>
<g id="Layer_68">
	<g id="Layer_2">
		<path class="st0" d="M494.84,315.7c11.75,0,17.33,8.44,17.51,16.95c0.17,8.74-5.41,17.83-17.51,17.83H484.2V315.7H494.84z
			 M494.84,312.73c-4.59,0-9.19,0-13.78,0v40.77c4.6,0,9.19,0,13.78,0c14.25,0,20.88-10.48,20.65-20.85
			C515.26,322.63,508.63,312.73,494.84,312.73z"/>
	</g>
</g>
<g id="Layer_3">
	<rect x="528.6" y="312.73" class="st0" width="3.08" height="40.77"/>
</g>
<g id="Layer_4">
	<polygon class="st0" points="559.4,353.5 562.54,353.5 562.54,315.64 577.26,315.64 577.26,312.85 544.68,312.85 544.68,315.64 
		559.4,315.64 	"/>
</g>
<g id="Layer_5">
	<path class="st0" d="M589.84,352.72c0,0.51,0.4,0.88,0.94,0.88c0.54,0,0.94-0.38,0.94-0.89c0-0.49-0.4-0.87-0.94-0.86
		C590.23,351.86,589.84,352.24,589.84,352.72"/>
</g>
<g id="Layer_6">
	<path class="st0" d="M582,345.49c0.01,2.74,1.98,4.71,4.81,4.7c2.83-0.01,4.8-1.96,4.79-4.72c0-1.64-0.62-2.96-1.65-3.81
		l-0.86,0.81c0.8,0.67,1.23,1.7,1.23,2.94c0,1.97-1.44,3.38-3.51,3.38c-2.08,0-3.5-1.4-3.51-3.37c0-1.16,0.41-2.11,1.1-2.84
		l-0.99-0.77C582.5,342.69,581.98,343.95,582,345.49"/>
</g>
<g id="Layer_7">
	<path class="st0" d="M583.26,335.7c0-1.99,1.44-3.41,3.51-3.42c2.09,0,3.54,1.42,3.55,3.4c0,1.99-1.44,3.41-3.53,3.42
		C584.72,339.11,583.27,337.69,583.26,335.7 M581.98,335.7c0.01,2.82,1.96,4.81,4.79,4.81c2.85-0.01,4.82-2.01,4.81-4.83
		c-0.01-2.82-1.98-4.82-4.83-4.81C583.92,330.88,581.98,332.89,581.98,335.7z"/>
</g>
<g id="Layer_8">
	<path class="st0" d="M581.92,316.23c0.02,1.82,0.82,3.16,2.5,3.75c-1.57,0.4-2.49,1.63-2.48,3.42c0.02,1.71,0.73,3,2.21,3.62
		l-2.15,0l0,1.39l9.51-0.02l0-1.39l-4.67,0.01c-2.04,0-3.45-1.17-3.51-3.12c0-1.66,0.99-2.64,2.68-2.64l5.49-0.01l0-1.43l-4.67,0.01
		c-2.04,0-3.45-1.13-3.51-3.1c0-1.64,0.99-2.64,2.68-2.64l5.49-0.01l0-1.41l-5.87,0.01C583.32,312.68,581.92,314.01,581.92,316.23"
		/>
</g>
<g id="Layer_9">
	<polygon class="st1" points="265.46,146.61 286.71,159.28 307.96,171.95 286.71,184.61 265.46,197.28 	"/>
</g>
<g id="Layer_10">
	<polygon class="st2" points="307.96,171.95 307.96,222.61 265.45,197.28 	"/>
</g>
<g id="Layer_11">
	<polygon class="st3" points="265.46,247.95 286.71,235.28 307.96,222.61 286.71,209.95 265.46,197.28 	"/>
</g>
<g id="Layer_12">
	<polygon class="st4" points="307.96,273.28 307.96,222.61 265.45,247.95 	"/>
</g>
<g id="Layer_13">
	<polygon class="st5" points="307.96,171.95 307.96,121.28 265.45,146.61 	"/>
</g>
<g id="Layer_14">
	<polygon class="st6" points="307.96,171.95 307.96,121.28 350.47,146.61 	"/>
</g>
<g id="Layer_15">
	<polygon class="st7" points="350.47,146.61 329.22,133.95 307.96,121.28 329.22,108.61 350.47,95.94 	"/>
</g>
<g id="Layer_16">
	<polygon class="st8" points="307.96,273.28 307.96,222.61 350.47,247.95 	"/>
</g>
<g id="Layer_17">
	<polygon class="st9" points="350.47,247.95 329.22,235.28 307.96,222.61 329.22,209.95 350.47,197.28 	"/>
</g>
<g id="Layer_18">
	<polygon class="st10" points="435.49,247.94 414.23,235.27 392.98,222.61 414.23,209.94 435.49,197.27 	"/>
</g>
<g id="Layer_19">
	<polygon class="st11" points="392.98,222.61 392.98,171.94 435.49,197.27 	"/>
</g>
<g id="Layer_20">
	<polygon class="st12" points="435.49,146.6 414.23,159.27 392.98,171.94 414.23,184.6 435.49,197.27 	"/>
</g>
<g id="Layer_21">
	<polygon class="st13" points="392.98,121.27 392.98,171.94 435.49,146.6 	"/>
</g>
<g id="Layer_22">
	<polygon class="st14" points="392.98,222.61 392.98,273.27 435.49,247.94 	"/>
</g>
<g id="Layer_23">
	<polygon class="st15" points="392.98,222.61 392.98,273.27 350.47,247.94 	"/>
</g>
<g id="Layer_24">
	<polygon class="st16" points="350.47,247.94 371.73,260.6 392.98,273.27 371.73,285.94 350.47,298.61 	"/>
</g>
<g id="Layer_25">
	<polygon class="st17" points="392.98,121.27 392.98,171.94 350.47,146.6 	"/>
</g>
<g id="Layer_26">
	<polygon class="st18" points="350.47,146.6 371.73,159.27 392.98,171.94 371.73,184.6 350.47,197.27 	"/>
</g>
<g id="Layer_27">
	<polygon class="st0" points="443.4,315.7 468.41,315.7 468.41,312.73 440.32,312.73 440.32,353.5 469.11,353.5 469.11,350.48 
		443.4,350.48 443.4,334.43 467.25,334.43 467.25,331.58 443.4,331.58 	"/>
</g>
<g id="Layer_28">
	<path class="st0" d="M400.45,315.64h14.77c6.75,0,10,4.95,9.95,9.74c-0.06,5.72-3.2,9.74-10.29,9.74h-14.42V315.64z M415.4,337.92
		c8.9,0,13.26-5.83,13.2-12.48c-0.06-6.36-4.54-12.71-13.38-12.71c-5.99,0-11.92,0-17.91,0v40.77h3.14v-15.41h11.11l14.08,15.41
		h4.13L415.4,337.92z"/>
</g>
<g id="Layer_29">
	<path class="st0" d="M382.51,345.88c-3.49,3.43-8.14,5.18-12.74,5.18c-11.75,0-17.8-8.26-17.91-17.8
		c-0.06-9.77,6.05-18.15,17.91-18.15c4.59,0,9.19,1.69,12.68,5.18l2.15-1.86c-4.07-4.07-9.48-6.11-14.83-6.11
		c-13.96,0-21.05,10.18-20.94,21.05c0.06,10.99,7.21,20.59,20.94,20.59c5.35,0,10.76-2.04,14.83-6.11L382.51,345.88z"/>
</g>
<g id="Layer_30">
	<path class="st0" d="M338.99,319.48c-3.08-6.28-9.66-8.08-15.99-8.08c-7.5,0.06-15.76,3.49-15.76,11.87
		c0,9.13,7.68,11.34,15.99,12.33c5.41,0.58,9.42,2.15,9.42,5.99c0,4.42-4.54,6.11-9.36,6.11c-4.94,0-9.65-1.98-11.46-6.46l-6.4,3.32
		c3.02,7.44,9.42,10,17.74,10c9.07,0,17.1-3.9,17.1-12.97c0-9.71-7.91-11.92-16.4-12.97c-4.89-0.58-9.07-1.57-9.07-5.12
		c0-3.02,2.73-5.41,8.43-5.41c4.42,0,8.26,2.21,9.65,4.54L338.99,319.48z"/>
</g>
<g id="Layer_31">
	<path class="st0" d="M270.06,320h8.38c8.84,0,12.56,6.35,12.74,12.71c0.17,6.65-3.49,13.41-12.74,13.41h-8.38V320z M278.44,312.73
		c-5,0-10.99,0-15.99,0v40.77c5,0,10.99,0,15.99,0c14.25,0,20.53-10.41,20.36-20.73C298.62,322.68,292.4,312.73,278.44,312.73z"/>
</g>
<g id="Layer_32">
	<path class="st0" d="M239.22,319.88c4.83,0,6.98,3.27,6.98,6.54c0,3.28-2.09,6.54-6.98,6.54h-11.69v-13.09H239.22z M255.92,352.98
		l-12.33-13.9c7.74-1.57,10.29-7.21,10.29-12.82c0-7.07-5.06-13.46-14.66-13.52c-6.46,0.06-12.91,0-19.37,0v40.77h7.68v-13.61h7.39
		l11.87,13.61h9.13V352.98z"/>
</g>
<g id="Layer_33">
	<path class="st0" d="M197.57,338.67h-15.12l7.56-17.37L197.57,338.67z M204.08,353.5h8.38l-18.26-40.77h-8.38l-18.26,40.77h8.32
		l3.49-7.68h21.29L204.08,353.5z"/>
</g>
<g id="Layer_34">
	<path class="st0" d="M160.1,343.09c-2.68,2.68-6.69,4.13-10.24,4.13c-10.06,0-13.96-7.04-14.02-13.78
		c-0.06-6.81,4.19-14.13,14.02-14.13c3.55,0,7.15,1.22,9.83,3.84l5.12-4.94c-4.19-4.13-9.42-6.22-14.95-6.22
		c-14.71,0-21.64,10.82-21.58,21.46c0.06,10.59,6.46,21,21.58,21c5.87,0,11.28-1.92,15.47-6.05L160.1,343.09z"/>
</g>
<g id="Layer_35">
	<path class="st0" d="M576.98,377.19c-0.67,0.42-1.32,0.62-1.94,0.62c-1.04,0-1.62-0.56-1.62-2.03v-6.63h3.86v-1.48l-3.86,0.02
		v-3.21h-1.78v3.21h-1.76v1.46h1.76v6.96c0,2.4,1.32,3.47,3.1,3.47c0.97-0.02,1.89-0.35,2.75-0.92L576.98,377.19z"/>
</g>
<g id="Layer_36">
	<path class="st0" d="M566.81,379.48v-12.18h-1.78v12.18H566.81z M565.91,362.57c-0.67,0-1.18,0.53-1.18,1.25
		c0,0.72,0.51,1.25,1.18,1.25c0.67,0,1.18-0.53,1.18-1.25C567.09,363.1,566.58,362.57,565.91,362.57z"/>
</g>
<g id="Layer_37">
	<path class="st0" d="M554.34,377.96c-2.59,0-4.41-1.89-4.41-4.53c0-2.66,1.82-4.57,4.41-4.57c2.56,0,4.39,1.92,4.39,4.57
		C558.73,376.06,556.9,377.96,554.34,377.96 M560.53,362.34h-1.8v7.6c-0.9-1.73-2.59-2.73-4.76-2.73c-3.44,0-5.85,2.52-5.85,6.17
		c0,3.63,2.4,6.19,5.87,6.19c2.17,0,3.84-0.99,4.74-2.7v2.61h1.8V362.34z"/>
</g>
<g id="Layer_38">
	<path class="st0" d="M536.32,372.62c0.28-2.31,1.94-3.81,4.25-3.81c2.38,0,3.95,1.48,4.07,3.81H536.32z M540.57,367.26
		c-3.54,0-6.03,2.52-6.03,6.15c0,3.63,2.47,6.14,6.05,6.14c2.03,0,3.74-0.74,4.9-2.03l-0.99-1.06c-0.95,0.99-2.26,1.52-3.77,1.52
		c-2.36,0-4.09-1.5-4.41-3.88h9.93C546.43,369.96,544.49,367.24,540.57,367.26z"/>
</g>
<g id="Layer_39">
	<path class="st0" d="M528.97,367.31h-1.8v12.18h1.8v-6.47c0.21-2.4,1.8-4,4.37-3.95v-1.82c-2.06,0.02-3.56,0.99-4.37,2.77V367.31z"
		/>
</g>
<g id="Layer_40">
	<path class="st0" d="M518.16,363.26c-4.69,0-8.43,3.58-8.43,8.11c0,4.57,3.7,8.2,8.36,8.2c2.24,0,4.41-0.99,6.01-2.5l-1.13-1.27
		c-1.27,1.2-3,1.94-4.78,1.94c-3.65,0-6.58-2.84-6.58-6.38c0-3.56,2.93-6.38,6.58-6.38c1.78,0,3.54,0.76,4.78,2.03l1.11-1.41
		C522.52,364.16,520.37,363.26,518.16,363.26"/>
</g>
<g id="Layer_41">
	<path class="st0" d="M503.76,367.24c-2.22,0-4.23,0.97-4.23,3.3c-0.02,4.32,6.79,2.82,6.72,5.75c-0.02,1.2-1.18,1.73-2.61,1.73
		c-1.43,0-3-0.58-4.04-1.55l-0.69,1.36c1.16,1.11,2.93,1.71,4.67,1.71c2.33,0,4.46-1.06,4.46-3.46c0-4.37-6.79-2.98-6.79-5.68
		c0-1.13,1.04-1.62,2.4-1.62c1.13,0,2.36,0.39,3.3,0.99l0.69-1.43C506.63,367.65,505.22,367.24,503.76,367.24"/>
</g>
<g id="Layer_42">
	<path class="st0" d="M489.83,377.96c-2.59,0-4.41-1.89-4.41-4.53c0-2.66,1.82-4.57,4.41-4.57c2.56,0,4.39,1.92,4.39,4.57
		C494.22,376.06,492.39,377.96,489.83,377.96 M496.02,362.34h-1.8v7.6c-0.9-1.73-2.59-2.73-4.76-2.73c-3.44,0-5.84,2.52-5.84,6.17
		c0,3.63,2.4,6.19,5.87,6.19c2.17,0,3.84-0.99,4.74-2.7v2.61h1.8V362.34z"/>
</g>
<g id="Layer_43">
	<path class="st0" d="M478.05,367.31h-1.8v12.18h1.8v-6.47c0.21-2.4,1.8-4,4.37-3.95v-1.82c-2.06,0.02-3.56,0.99-4.37,2.77V367.31z"
		/>
</g>
<g id="Layer_44">
	<path class="st0" d="M466.36,378c-1.71,0-2.8-0.88-2.8-2.22c0-1.34,1.06-1.96,3.1-1.96h3.79v1.46
		C469.99,376.96,468.42,378,466.36,378 M470.47,379.48h1.76l-0.02-8.04c-0.02-2.61-1.69-4.2-4.7-4.2c-2.08,0-3.4,0.6-4.97,1.64
		l0.76,1.32c1.27-0.88,2.52-1.39,3.86-1.39c2.15,0,3.26,1.06,3.26,2.84v0.72h-4c-2.86,0.02-4.55,1.36-4.55,3.49
		c0,2.1,1.62,3.72,4.14,3.72c1.94,0,3.49-0.65,4.46-1.96V379.48z"/>
</g>
<g id="Layer_45">
	<path class="st0" d="M453.9,363.26c-4.69,0-8.43,3.58-8.43,8.11c0,4.57,3.7,8.2,8.36,8.2c2.24,0,4.41-0.99,6.01-2.5l-1.13-1.27
		c-1.27,1.2-3,1.94-4.78,1.94c-3.65,0-6.58-2.84-6.58-6.38c0-3.56,2.93-6.38,6.58-6.38c1.78,0,3.53,0.76,4.78,2.03l1.11-1.41
		C458.27,364.16,456.12,363.26,453.9,363.26"/>
</g>
<g id="Layer_46">
	<path class="st0" d="M427.38,372.62c0.28-2.31,1.94-3.81,4.25-3.81c2.38,0,3.95,1.48,4.07,3.81H427.38z M431.63,367.26
		c-3.54,0-6.03,2.52-6.03,6.15c0,3.63,2.47,6.14,6.05,6.14c2.03,0,3.74-0.74,4.9-2.03l-0.99-1.06c-0.95,0.99-2.26,1.52-3.77,1.52
		c-2.36,0-4.09-1.5-4.41-3.88h9.93C437.5,369.96,435.56,367.24,431.63,367.26z"/>
</g>
<g id="Layer_47">
	<path class="st0" d="M419.59,367.24c-2.22,0-4.23,0.97-4.23,3.3c-0.02,4.32,6.79,2.82,6.72,5.75c-0.02,1.2-1.18,1.73-2.61,1.73
		c-1.43,0-3-0.58-4.04-1.55l-0.69,1.36c1.16,1.11,2.93,1.71,4.67,1.71c2.33,0,4.46-1.06,4.46-3.46c0-4.37-6.79-2.98-6.79-5.68
		c0-1.13,1.04-1.62,2.4-1.62c1.13,0,2.36,0.39,3.3,0.99l0.69-1.43C422.46,367.65,421.05,367.24,419.59,367.24"/>
</g>
<g id="Layer_49">
	<path class="st0" d="M412.08,363.31h-1.85v9.52c0,3.14-1.85,4.97-4.92,4.97c-3.07,0-4.97-1.82-4.97-4.97v-9.52h-1.85v9.52
		c0,4.2,2.56,6.75,6.81,6.75c4.23,0,6.77-2.54,6.77-6.75V363.31z"/>
</g>
<g id="Layer_50">
	<path class="st0" d="M387.8,377.26c-0.65,0-1.13,0.51-1.13,1.2c0,0.69,0.48,1.2,1.13,1.2c0.62,0,1.11-0.51,1.11-1.2
		C388.91,377.77,388.43,377.26,387.8,377.26 M383.2,377.26c-0.65,0-1.13,0.51-1.13,1.2c0,0.69,0.48,1.2,1.13,1.2
		c0.62,0,1.11-0.51,1.11-1.2C384.31,377.77,383.83,377.26,383.2,377.26z M378.61,377.26c-0.65,0-1.13,0.51-1.13,1.2
		c0,0.69,0.48,1.2,1.13,1.2c0.62,0,1.11-0.51,1.11-1.2C379.72,377.77,379.23,377.26,378.61,377.26z"/>
</g>
<g id="Layer_51">
	<path class="st0" d="M364.93,367.24c-2.22,0-4.23,0.97-4.23,3.3c-0.02,4.32,6.79,2.82,6.72,5.75c-0.02,1.2-1.18,1.73-2.61,1.73
		c-1.43,0-3-0.58-4.04-1.55l-0.69,1.36c1.16,1.11,2.93,1.71,4.67,1.71c2.33,0,4.46-1.06,4.46-3.46c0-4.37-6.79-2.98-6.79-5.68
		c0-1.13,1.04-1.62,2.4-1.62c1.13,0,2.36,0.39,3.3,0.99l0.69-1.43C367.79,367.65,366.39,367.24,364.93,367.24"/>
</g>
<g id="Layer_52">
	<path class="st0" d="M351,377.96c-2.59,0-4.41-1.89-4.41-4.53c0-2.66,1.83-4.57,4.41-4.57c2.56,0,4.39,1.92,4.39,4.57
		C355.39,376.06,353.56,377.96,351,377.96 M357.19,362.34h-1.8v7.6c-0.9-1.73-2.59-2.73-4.76-2.73c-3.44,0-5.85,2.52-5.85,6.17
		c0,3.63,2.4,6.19,5.87,6.19c2.17,0,3.84-0.99,4.74-2.7v2.61h1.8V362.34z"/>
</g>
<g id="Layer_53">
	<path class="st0" d="M339.22,367.31h-1.8v12.18h1.8v-6.47c0.21-2.4,1.8-4,4.37-3.95v-1.82c-2.06,0.02-3.56,0.99-4.37,2.77V367.31z"
		/>
</g>
<g id="Layer_54">
	<path class="st0" d="M327.52,378c-1.71,0-2.8-0.88-2.8-2.22c0-1.34,1.06-1.96,3.1-1.96h3.79v1.46
		C331.16,376.96,329.58,378,327.52,378 M331.64,379.48h1.76l-0.02-8.04c-0.02-2.61-1.69-4.2-4.7-4.2c-2.08,0-3.4,0.6-4.97,1.64
		l0.76,1.32c1.27-0.88,2.52-1.39,3.86-1.39c2.15,0,3.26,1.06,3.26,2.84v0.72h-4c-2.86,0.02-4.55,1.36-4.55,3.49
		c0,2.1,1.62,3.72,4.14,3.72c1.94,0,3.49-0.65,4.46-1.96V379.48z"/>
</g>
<g id="Layer_55">
	<path class="st0" d="M315.07,363.26c-4.69,0-8.43,3.58-8.43,8.11c0,4.57,3.7,8.2,8.36,8.2c2.24,0,4.41-0.99,6.01-2.5l-1.13-1.27
		c-1.27,1.2-3,1.94-4.78,1.94c-3.65,0-6.58-2.84-6.58-6.38c0-3.56,2.93-6.38,6.58-6.38c1.78,0,3.53,0.76,4.78,2.03l1.11-1.41
		C319.44,364.16,317.29,363.26,315.07,363.26"/>
</g>
<g id="Layer_56">
	<path class="st0" d="M298.34,377.19c-0.67,0.42-1.32,0.62-1.94,0.62c-1.04,0-1.62-0.56-1.62-2.03v-6.63h3.86v-1.48l-3.86,0.02
		v-3.21h-1.78v3.21h-1.76v1.46h1.76v6.96c0,2.4,1.32,3.47,3.1,3.47c0.97-0.02,1.89-0.35,2.75-0.92L298.34,377.19z"/>
</g>
<g id="Layer_57">
	<path class="st0" d="M288.18,379.48v-12.18h-1.78v12.18H288.18z M287.28,362.57c-0.67,0-1.18,0.53-1.18,1.25
		c0,0.72,0.51,1.25,1.18,1.25c0.67,0,1.18-0.53,1.18-1.25C288.45,363.1,287.95,362.57,287.28,362.57z"/>
</g>
<g id="Layer_58">
	<path class="st0" d="M275.7,377.96c-2.59,0-4.41-1.89-4.41-4.53c0-2.66,1.82-4.57,4.41-4.57c2.56,0,4.39,1.92,4.39,4.57
		C280.09,376.06,278.27,377.96,275.7,377.96 M281.89,362.34h-1.8v7.6c-0.9-1.73-2.59-2.73-4.76-2.73c-3.44,0-5.85,2.52-5.85,6.17
		c0,3.63,2.4,6.19,5.87,6.19c2.17,0,3.84-0.99,4.74-2.7v2.61h1.8V362.34z"/>
</g>
<g id="Layer_59">
	<path class="st0" d="M257.68,372.62c0.28-2.31,1.94-3.81,4.25-3.81c2.38,0,3.95,1.48,4.07,3.81H257.68z M261.93,367.26
		c-3.53,0-6.03,2.52-6.03,6.15c0,3.63,2.47,6.14,6.05,6.14c2.03,0,3.74-0.74,4.9-2.03l-0.99-1.06c-0.95,0.99-2.26,1.52-3.77,1.52
		c-2.36,0-4.09-1.5-4.41-3.88h9.93C267.8,369.96,265.86,367.24,261.93,367.26z"/>
</g>
<g id="Layer_60">
	<path class="st0" d="M250.33,367.31h-1.8v12.18h1.8v-6.47c0.21-2.4,1.8-4,4.37-3.95v-1.82c-2.06,0.02-3.56,0.99-4.37,2.77V367.31z"
		/>
</g>
<g id="Layer_62">
	<path class="st0" d="M239.52,363.26c-4.69,0-8.43,3.58-8.43,8.11c0,4.57,3.7,8.2,8.36,8.2c2.24,0,4.41-0.99,6.01-2.5l-1.13-1.27
		c-1.27,1.2-3,1.94-4.78,1.94c-3.65,0-6.58-2.84-6.58-6.38c0-3.56,2.93-6.38,6.58-6.38c1.78,0,3.53,0.76,4.78,2.03l1.11-1.41
		C243.89,364.16,241.74,363.26,239.52,363.26"/>
</g>
<g id="Layer_63">
	<path class="st0" d="M213,372.62c0.28-2.31,1.94-3.81,4.25-3.81c2.38,0,3.95,1.48,4.07,3.81H213z M217.25,367.26
		c-3.53,0-6.03,2.52-6.03,6.15c0,3.63,2.47,6.14,6.05,6.14c2.03,0,3.74-0.74,4.9-2.03l-0.99-1.06c-0.95,0.99-2.26,1.52-3.77,1.52
		c-2.36,0-4.09-1.5-4.41-3.88h9.93C223.12,369.96,221.18,367.24,217.25,367.26z"/>
</g>
<g id="Layer_64">
	<path class="st0" d="M205.21,367.24c-2.22,0-4.23,0.97-4.23,3.3c-0.02,4.32,6.79,2.82,6.72,5.75c-0.02,1.2-1.18,1.73-2.61,1.73
		c-1.43,0-3-0.58-4.04-1.55l-0.69,1.36c1.16,1.11,2.93,1.71,4.67,1.71c2.33,0,4.46-1.06,4.46-3.46c0-4.37-6.79-2.98-6.79-5.68
		c0-1.13,1.04-1.62,2.4-1.62c1.13,0,2.36,0.39,3.3,0.99l0.69-1.43C208.08,367.65,206.67,367.24,205.21,367.24"/>
</g>
<g id="Layer_65">
	<path class="st0" d="M197.59,367.31h-1.8v5.98c0,2.59-1.48,4.41-4,4.46c-2.1,0-3.37-1.27-3.37-3.42v-7.02h-1.8v7.51
		c0,2.93,1.71,4.74,4.55,4.74c2.19-0.02,3.81-0.92,4.62-2.82v2.75h1.8V367.31z"/>
</g>
<g id="Layer_66">
	<path class="st0" d="M178.57,367.31h-1.85l-3.86,10.05l-4.04-10.05h-1.89l5.04,12.08l-0.51,1.13c-0.49,1.13-1.27,1.71-2.22,1.71
		c-0.6,0-1.15-0.18-1.71-0.58l-0.76,1.5c0.74,0.6,1.55,0.9,2.57,0.9c1.62,0,2.89-0.97,3.65-2.84L178.57,367.31z"/>
</g>
<g id="Layer_61">
	<path class="st0" d="M160.97,367.24c-2.24,0.02-3.9,0.9-4.74,2.79v-7.69h-1.8v17.14h1.8v-5.98c0-2.61,1.53-4.44,4.11-4.46
		c2.15,0,3.44,1.27,3.44,3.42v7.02h1.8v-7.51C165.59,369.04,163.88,367.24,160.97,367.24"/>
</g>
<g id="Layer_67">
	<polygon class="st0" points="146.74,379.48 152.16,363.31 150.25,363.31 145.86,377.33 141.42,363.31 139.57,363.33 135.18,377.33 
		130.75,363.31 128.76,363.31 134.17,379.48 136.06,379.48 140.47,365.85 144.84,379.48 	"/>
</g>
</svg>
