<?xml version="1.0" encoding="utf-8"?>
<!-- Generator: Adobe Illustrator 24.0.2, SVG Export Plug-In . SVG Version: 6.00 Build 0)  -->
<svg version="1.1" baseProfile="basic" xmlns="http://www.w3.org/2000/svg" xmlns:xlink="http://www.w3.org/1999/xlink" x="0px"
	 y="0px" viewBox="0 0 720 480" xml:space="preserve">
<style type="text/css">
	.st0{fill-rule:evenodd;clip-rule:evenodd;fill:#506588;}
	.st1{fill-rule:evenodd;clip-rule:evenodd;fill:#0B4B9E;}
	.st2{fill-rule:evenodd;clip-rule:evenodd;fill:#0F4996;}
	.st3{fill-rule:evenodd;clip-rule:evenodd;fill:#074380;}
	.st4{fill-rule:evenodd;clip-rule:evenodd;fill:#043566;}
	.st5{fill-rule:evenodd;clip-rule:evenodd;fill:#1960BC;}
	.st6{fill-rule:evenodd;clip-rule:evenodd;fill:#2390EB;}
	.st7{fill-rule:evenodd;clip-rule:evenodd;fill:#00AFEF;}
	.st8{fill-rule:evenodd;clip-rule:evenodd;fill:#052B52;}
	.st9{fill-rule:evenodd;clip-rule:evenodd;fill:#03264A;}
	.st10{fill-rule:evenodd;clip-rule:evenodd;fill:#E85801;}
	.st11{fill-rule:evenodd;clip-rule:evenodd;fill:#F17E25;}
	.st12{fill-rule:evenodd;clip-rule:evenodd;fill:#F2892B;}
	.st13{fill-rule:evenodd;clip-rule:evenodd;fill:#FFAF04;}
	.st14{fill-rule:evenodd;clip-rule:evenodd;fill:#DB4E03;}
	.st15{fill-rule:evenodd;clip-rule:evenodd;fill:#DE422C;}
	.st16{fill-rule:evenodd;clip-rule:evenodd;fill:#C42521;}
	.st17{fill-rule:evenodd;clip-rule:evenodd;fill:#FDBF08;}
	.st18{fill-rule:evenodd;clip-rule:evenodd;fill:#FFE93B;}
</style>
<g id="Layer_9">
	<polygon class="st1" points="265.46,146.61 286.71,159.28 307.96,171.95 286.71,184.61 265.46,197.28 	"/>
</g>
<g id="Layer_10">
	<polygon class="st2" points="307.96,171.95 307.96,222.61 265.45,197.28 	"/>
</g>
<g id="Layer_11">
	<polygon class="st3" points="265.46,247.95 286.71,235.28 307.96,222.61 286.71,209.95 265.46,197.28 	"/>
</g>
<g id="Layer_12">
	<polygon class="st4" points="307.96,273.28 307.96,222.61 265.45,247.95 	"/>
</g>
<g id="Layer_13">
	<polygon class="st5" points="307.96,171.95 307.96,121.28 265.45,146.61 	"/>
</g>
<g id="Layer_14">
	<polygon class="st6" points="307.96,171.95 307.96,121.28 350.47,146.61 	"/>
</g>
<g id="Layer_15">
	<polygon class="st7" points="350.47,146.61 329.22,133.95 307.96,121.28 329.22,108.61 350.47,95.94 	"/>
</g>
<g id="Layer_16">
	<polygon class="st8" points="307.96,273.28 307.96,222.61 350.47,247.95 	"/>
</g>
<g id="Layer_17">
	<polygon class="st9" points="350.47,247.95 329.22,235.28 307.96,222.61 329.22,209.95 350.47,197.28 	"/>
</g>
<g id="Layer_18">
	<polygon class="st10" points="435.49,247.94 414.23,235.27 392.98,222.61 414.23,209.94 435.49,197.27 	"/>
</g>
<g id="Layer_19">
	<polygon class="st11" points="392.98,222.61 392.98,171.94 435.49,197.27 	"/>
</g>
<g id="Layer_20">
	<polygon class="st12" points="435.49,146.6 414.23,159.27 392.98,171.94 414.23,184.6 435.49,197.27 	"/>
</g>
<g id="Layer_21">
	<polygon class="st13" points="392.98,121.27 392.98,171.94 435.49,146.6 	"/>
</g>
<g id="Layer_22">
	<polygon class="st14" points="392.98,222.61 392.98,273.27 435.49,247.94 	"/>
</g>
<g id="Layer_23">
	<polygon class="st15" points="392.98,222.61 392.98,273.27 350.47,247.94 	"/>
</g>
<g id="Layer_24">
	<polygon class="st16" points="350.47,247.94 371.73,260.6 392.98,273.27 371.73,285.94 350.47,298.61 	"/>
</g>
<g id="Layer_25">
	<polygon class="st17" points="392.98,121.27 392.98,171.94 350.47,146.6 	"/>
</g>
<g id="Layer_26">
	<polygon class="st18" points="350.47,146.6 371.73,159.27 392.98,171.94 371.73,184.6 350.47,197.27 	"/>
</g>
</svg>
